<svg xmlns="http://www.w3.org/2000/svg" viewBox="0 0 32 32" width="32" height="32">
  <path fill="#ffffff" d="M16.02 2.003c-7.697 0-13.935 6.27-13.935 13.999 0 2.462.646 4.868 1.871 6.995L2.008 30l7.18-1.86c2.068 1.163 4.413 1.78 6.837 1.78h.002c7.697 0 13.933-6.27 13.933-13.999C29.961 8.272 23.717 2.003 16.02 2.003zm7.547 19.83c-.316.887-1.85 1.68-2.553 1.786-.653.097-1.49.14-2.403-.149-.554-.175-1.264-.412-2.185-.805-3.843-1.655-6.351-5.504-6.548-5.77-.197-.267-1.563-2.075-1.563-3.96 0-1.885.983-2.812 1.332-3.19.348-.377.763-.472 1.017-.472.254 0 .508.002.73.013.235.01.548-.045.854.651.316.753 1.078 2.614 1.174 2.8.094.188.159.408.03.658-.127.248-.191.4-.375.618-.184.218-.392.487-.557.653-.184.184-.375.384-.162.753.212.367.946 1.56 2.036 2.528 1.399 1.25 2.58 1.645 2.947 1.828.368.183.58.155.797-.093.219-.25.912-1.063 1.156-1.427.244-.364.488-.3.83-.183.342.117 2.162 1.018 2.53 1.2.368.183.614.274.703.427.09.153.09.89-.225 1.777z"></path>
</svg>
